<?xml version="1.0" encoding="utf-8"?>
<!-- Generator: Adobe Illustrator 27.8.0, SVG Export Plug-In . SVG Version: 6.00 Build 0)  -->
<svg version="1.0" id="katman_1" xmlns="http://www.w3.org/2000/svg" xmlns:xlink="http://www.w3.org/1999/xlink" x="0px" y="0px"
	 viewBox="0 0 1672 1254"  xml:space="preserve">
<style type="text/css">
	.st0{fill:#FFFFFF;}
	.st1{fill:#FFFFFF;}
</style>
<path class="st0" d="M189.81,683.65l-26.44,75.67c-0.09,0.26-0.27,0.38-0.54,0.38h-52.53c-0.27,0-0.48-0.21-0.48-0.48
	c0-0.06,0.01-0.11,0.03-0.17L228.4,438.55c0.15-0.41,0.53-0.68,0.96-0.67l58.22,0.03c0.33,0,0.62,0.2,0.74,0.51l118.43,320.31
	c0.15,0.39,0.01,0.61-0.4,0.66c-0.08,0.01-0.17,0.05-0.27,0.13c-0.19,0.13-0.4,0.19-0.63,0.19h-51.28c-0.36,0-0.67-0.22-0.79-0.56
	l-26.5-75.68c-0.09-0.26-0.34-0.44-0.62-0.44l-135.63,0.05C190.21,683.07,189.94,683.27,189.81,683.65z M307.43,635.86
	c0.83,0,1.8,0.26,2.71,0.36c0.41,0.05,0.55-0.12,0.41-0.52l-50.71-145.3c-0.24-0.7-1.01-1.08-1.71-0.84
	c-0.28,0.1-0.53,0.29-0.69,0.54c-0.41,0.63-0.77,1.38-1.08,2.25c-16.72,47.8-33.45,95.6-50.2,143.39c-0.09,0.26,0,0.38,0.27,0.36
	c1.27-0.08,2.55-0.12,3.84-0.13C242.65,635.82,275.04,635.78,307.43,635.86z"/>
<path class="st0" d="M795.35,742.44c0-0.74-0.61-1.34-1.34-1.33c-0.38,0-0.73,0.16-0.99,0.44c-11.31,12.69-25.2,20.46-41.64,23.32
	c-61.96,10.8-116.99-41.77-119.83-101.7c-1.49-31.36,8.06-58.54,28.65-81.56c15.39-17.21,35.12-28.83,57.92-33.09
	c27.18-5.07,56.08,1.3,75.13,21.84c0.39,0.42,1.05,0.44,1.47,0.05c0.19-0.17,0.3-0.41,0.33-0.66c0.01-0.08,0.07-0.25,0.18-0.48
	c0.09-0.16,0.13-0.33,0.13-0.49c0-43.49,0-86.96,0-130.4c0-0.26,0.21-0.47,0.47-0.47c0,0,0,0,0,0h45.97c0.49,0,0.89,0.4,0.89,0.89
	l0,0l0.12,320.28c0,0.35-0.29,0.64-0.64,0.64h-46.13c-0.38,0-0.68-0.31-0.68-0.68V742.44z M690.01,694.25
	c25.58,42.84,86.29,37.1,103.47-9.77c13.95-38.04-1.72-89.55-48.24-94.32c-3.63-0.37-9.37-0.36-12.74,0.22
	C683.77,598.74,666.33,654.6,690.01,694.25z"/>
<path class="st0" d="M1344.36,739.75c-23.13-21.29-37.09-50.72-37.31-82.24c-0.45-63.28,52.91-118.45,118.03-109.6
	c15.9,2.16,31.44,9.04,42.53,21.22c0.82,0.9,1.73,1.33,2.74,1.28c0.36-0.01,0.64-0.31,0.65-0.67l0.12-131.41
	c0-0.29,0.15-0.44,0.44-0.44h46.26c0.43,0,0.64,0.21,0.64,0.64c-0.05,102.51,0.27,205.01,0.21,307.51c-0.01,1.8-0.1,6.16-0.29,13.1
	c-0.01,0.38-0.21,0.56-0.58,0.56h-46.25c-0.46,0-0.68-0.23-0.68-0.68v-16.84c0-0.56-0.45-1.01-1.01-1.01
	c-0.28,0-0.56,0.12-0.75,0.33C1435.31,778.74,1378.4,771.1,1344.36,739.75z M1377.63,708.53c25.67,22.88,66.14,19.05,85-11.05
	c14.63-23.35,15.82-56.22,1.25-80.19c-13.91-22.9-41.46-33.03-66.87-24.1C1349.5,609.89,1342.03,676.78,1377.63,708.53z"/>
<circle class="st0" cx="1262.74" cy="485.38" r="31.17"/>
<path class="st1" d="M307.43,635.86c-32.39-0.07-64.78-0.03-97.17,0.12c-1.29,0.01-2.57,0.05-3.84,0.13
	c-0.27,0.02-0.36-0.1-0.27-0.36c16.74-47.79,33.48-95.59,50.2-143.39c0.31-0.87,0.67-1.62,1.08-2.25c0.41-0.62,1.24-0.8,1.87-0.39
	c0.25,0.16,0.44,0.41,0.54,0.69l50.71,145.3c0.14,0.39,0,0.57-0.41,0.52C309.23,636.11,308.26,635.86,307.43,635.86z"/>
<path class="st0" d="M561.17,623.5c-11.47-42.59-72.34-45.5-86.76-3.76c-2.2,6.37-3.3,13.3-3.32,20.78
	c-0.07,39.58-0.09,79.07-0.04,118.47c0,0.39-0.31,0.7-0.7,0.7l0,0h-46.22c-0.26,0-0.46-0.21-0.46-0.46l0,0c0-38.05,0-76.15,0-114.31
	c-0.01-8.16,0.25-14.22,0.77-18.18c6.01-45.45,43.47-77.86,89-79.67c48.3-1.92,88.95,30.97,96.23,78.75c0.67,4.4,1.01,10.45,1,18.17
	c-0.04,38.29-0.04,76.63-0.02,115.02c0,0.38-0.31,0.69-0.69,0.69l0,0h-46.22c-0.25,0-0.45-0.2-0.45-0.45
	c-0.01-37.82-0.05-75.7-0.15-113.66C563.12,636.32,563.05,630.47,561.17,623.5z"/>
<path class="st0" d="M976.12,590.08c-40.69,0.48-59.52,23.61-59.5,62.75c0.02,35.33,0.08,70.71,0.16,106.13
	c0,0.41-0.33,0.74-0.74,0.74h0h-46.23c-0.25,0-0.45-0.2-0.45-0.46c-0.02-35.54-0.02-71.15,0.01-106.81
	c0.04-67.56,42.74-110.12,111.59-105.18c4.59,0.33,8.94,1.18,13.05,2.55c0.36,0.12,0.61,0.46,0.61,0.84v40.29
	c0,0.3-0.15,0.42-0.45,0.36C989.26,590.4,983.24,590,976.12,590.08z"/>
<path class="st0" d="M1103.51,766.33c-74.26-2.74-123.33-75.28-100.28-145.85c14.37-43.98,54.71-71.8,100.77-73.42
	c70.1-2.47,123.39,55.42,113.21,125.54C1209,729,1160.11,768.42,1103.51,766.33z M1046.05,661.31c1.98,29.15,22.59,56.72,52.23,61.3
	c51.02,7.88,83.29-45.56,67.97-90.36c-13.11-38.33-57.93-54.5-92.03-32.08C1054.07,613.42,1044.43,637.33,1046.05,661.31z"/>
<path class="st0" d="M1239.98,553.59h45.6c0.56,0,1.02,0.46,1.02,1.02v204.06c0,0.56-0.46,1.02-1.02,1.02h-45.6
	c-0.56,0-1.02-0.46-1.02-1.02V554.62C1238.96,554.05,1239.41,553.59,1239.98,553.59z"/>
<path class="st1" d="M793.48,684.48c-17.18,46.88-77.89,52.61-103.47,9.77c-23.68-39.66-6.24-95.51,42.49-103.88
	c3.37-0.57,9.12-0.59,12.74-0.22C791.76,594.93,807.43,646.43,793.48,684.48z"/>
<path class="st1" d="M1098.28,722.61c-29.63-4.58-50.25-32.15-52.23-61.3c-1.62-23.98,8.02-47.89,28.17-61.14
	c34.1-22.42,78.92-6.26,92.03,32.08C1181.57,677.05,1149.3,730.49,1098.28,722.61z"/>
<path class="st1" d="M1377.63,708.53c-35.6-31.75-28.12-98.63,19.39-115.35c25.41-8.93,52.96,1.2,66.87,24.1
	c14.58,23.98,13.38,56.85-1.25,80.19C1443.77,727.58,1403.3,731.41,1377.63,708.53z"/>
</svg>
