<?xml version="1.0" encoding="utf-8"?>
<!-- Generator: Adobe Illustrator 28.0.0, SVG Export Plug-In . SVG Version: 6.00 Build 0)  -->
<svg version="1.0" id="katman_1" xmlns="http://www.w3.org/2000/svg" xmlns:xlink="http://www.w3.org/1999/xlink" x="0px" y="0px"
	 viewBox="0 0 841.89 595.28" style="enable-background:new 0 0 841.89 595.28;" xml:space="preserve">
<style type="text/css">
	.st0{fill:#e3594e;}
	.st1{fill:#e58201;}
	.st2{fill:#031d36;}
</style>
<path class="st0" d="M192.28,318.08c-0.86,0-1.33-0.48-1.33-1.43v-65.37c0-0.95,0.48-1.43,1.33-1.43h23.67
	c15.85,0,25.76,8.48,25.76,25.19v18.14c0,16.51-9.92,24.9-25.76,24.9H192.28z M202.49,307.3h13.45c9.17,0,13.84-4.49,13.84-14.03
	v-18.32c0-9.82-4.67-14.5-13.84-14.5h-13.45V307.3z"/>
<path class="st0" d="M266.72,307.58h30.62c0.97,0,1.44,0.48,1.44,1.34v7.73c0,0.96-0.47,1.43-1.44,1.43h-40.83
	c-0.86,0-1.33-0.48-1.33-1.43v-65.37c0-0.95,0.47-1.43,1.33-1.43h39.5c0.95,0,1.44,0.48,1.44,1.43v7.73c0,0.86-0.49,1.33-1.44,1.33
	h-29.29v17.85h26.81c0.95,0,1.44,0.48,1.44,1.44v7.63c0,0.95-0.48,1.43-1.44,1.43h-26.81L266.72,307.58L266.72,307.58z"/>
<path class="st0" d="M312.42,318.08c-0.86,0-1.33-0.48-1.33-1.43v-65.37c0-0.95,0.48-1.43,1.33-1.43h10.4
	c0.67,0,1.24,0.28,1.52,1.05l11.64,21.66c2.58,4.77,6.59,13.36,8.12,16.79h0.38c1.52-3.43,5.54-12.02,8.11-16.79l11.54-21.66
	c0.39-0.77,0.96-1.05,1.63-1.05h10.31c0.95,0,1.43,0.48,1.43,1.43v65.37c0,0.96-0.48,1.43-1.43,1.43h-8.68
	c-0.86,0-1.34-0.48-1.34-1.43v-19.18c0-8.96,0.38-20.61,0.76-29.96l-0.29-0.1c-2.29,4.96-5.44,11.35-8.59,17.65l-8.4,16.32
	c-0.29,0.67-0.86,1.04-1.62,1.04h-7.25c-0.77,0-1.35-0.37-1.63-1.04l-8.41-16.32c-3.14-6.3-6.29-12.69-8.58-17.65l-0.29,0.1
	c0.38,9.35,0.76,21,0.76,29.96v19.18c0,0.96-0.48,1.43-1.44,1.43h-8.68H312.42z"/>
<path class="st0" d="M387.14,318.08c-1.04,0-1.43-0.57-1.14-1.62L408.9,251c0.29-0.77,0.77-1.15,1.52-1.15h10.89
	c0.76,0,1.24,0.37,1.52,1.15l22.9,65.46c0.3,1.05-0.18,1.62-1.14,1.62h-9.34c-0.77,0-1.44-0.38-1.63-1.15l-4.68-14.41H402.8
	l-4.67,14.41c-0.28,0.76-0.86,1.15-1.62,1.15H387.14L387.14,318.08z M406.04,292.12h19.66l-9.63-29.68h-0.38L406.04,292.12
	L406.04,292.12z"/>
<path class="st0" d="M455.56,318.08c-0.86,0-1.33-0.48-1.33-1.43v-65.37c0-0.95,0.47-1.43,1.33-1.43h9.65
	c0.76,0,1.33,0.37,1.71,0.96l18.61,32.44c3.26,5.73,6.88,12.13,9.56,17.28l0.28-0.09c-0.58-8.12-0.85-17.84-0.85-25.87v-23.28
	c0-0.95,0.47-1.43,1.43-1.43h8.59c0.95,0,1.43,0.48,1.43,1.43v65.37c0,0.96-0.48,1.43-1.43,1.43h-9.64c-0.68,0-1.25-0.29-1.63-0.96
	l-18.03-29.86c-3.53-5.73-7.54-13.17-10.21-18.8l-0.28,0.09c0.48,8.21,0.85,18.14,0.85,26.25v21.85c0,0.96-0.48,1.43-1.33,1.43
	h-8.69L455.56,318.08z"/>
<path class="st0" d="M522.95,318.08c-0.87,0-1.34-0.48-1.34-1.43v-65.37c0-0.95,0.47-1.43,1.34-1.43h23.66
	c15.84,0,25.76,8.48,25.76,25.19v18.14c0,16.51-9.92,24.9-25.76,24.9H522.95L522.95,318.08z M533.16,307.3h13.46
	c9.15,0,13.84-4.49,13.84-14.03v-18.32c0-9.82-4.69-14.5-13.84-14.5h-13.46V307.3L533.16,307.3z"/>
<path class="st0" d="M607.1,319.22c-9.53,0-16.59-3.06-24.33-9.16c-0.66-0.67-0.77-1.24-0.28-2l4.77-6.68
	c0.48-0.67,1.15-0.77,1.91-0.29c6.2,4.48,11.93,7.06,18.42,7.26c6.96,0,13.83-2.96,13.83-9.45c0-6.87-7.14-8.59-15.46-10.31
	c-10.02-2.09-23.19-6.68-23.19-20.89c0-13.28,11.75-19,25.48-19c8.21,0,14.7,2.3,22.43,7.54c0.76,0.48,0.86,1.25,0.38,1.91
	l-4.58,6.59c-0.48,0.76-1.23,0.76-2,0.28c-5.63-3.62-11.27-5.34-17.08-5.53c-8.21,0-12.98,3.25-12.98,8.4
	c0,6.11,6.11,7.73,14.5,9.64c11.16,2.48,24.33,6.11,24.33,21.19c0,15.08-12.21,20.52-26.15,20.52L607.1,319.22z"/>
<path class="st0" d="M688.79,249.85c0.85,0,1.43,0.48,1.43,1.43v7.82c0,0.86-0.57,1.34-1.43,1.34h-19.18v56.2
	c0,0.96-0.48,1.43-1.34,1.43h-8.78c-0.85,0-1.33-0.48-1.33-1.43v-56.2h-19.27c-0.86,0-1.43-0.49-1.43-1.34v-7.82
	c0-0.95,0.57-1.43,1.43-1.43H688.79L688.79,249.85z"/>
<path class="st0" d="M687.55,318.08c-1.06,0-1.44-0.57-1.15-1.62L709.31,251c0.29-0.77,0.76-1.15,1.53-1.15h10.89
	c0.76,0,1.24,0.37,1.52,1.15l22.91,65.46c0.29,1.05-0.19,1.62-1.14,1.62h-9.35c-0.77,0-1.44-0.38-1.62-1.15l-4.67-14.41h-26.15
	l-4.68,14.41c-0.29,0.76-0.85,1.15-1.62,1.15h-9.35H687.55z M706.45,292.12h19.65l-9.64-29.68h-0.38L706.45,292.12z"/>
<path class="st0" d="M792.91,318.08c-0.66,0-1.24-0.29-1.62-0.96l-16.71-23.95h-8.48v23.47c0,0.96-0.48,1.43-1.34,1.43h-8.78
	c-0.87,0-1.33-0.48-1.33-1.43v-65.36c0-0.95,0.47-1.43,1.33-1.43h22.13c15.65,0,24.81,8.11,24.81,21.76
	c0,10.49-5.83,17.65-15.84,20.32l17.45,24.43c0.67,1.05,0.2,1.72-0.85,1.72H792.9H792.91z M766.1,260.45v22.41h12.02
	c8.87,0,13.07-3.53,13.07-11.16s-4.2-11.25-13.07-11.25H766.1z"/>
<path class="st0" d="M91.29,268.25c-1.08,2.63-3.72,4.47-6.44,4.47c-1.69,0-3.25-0.68-4.54-1.98c-3.39-3.52-15.01-17.73-12-20.98
	c0.44-0.43,1-0.66,1.68-0.66c4.46,0,16.21,8.52,19.82,12.14c1.97,1.97,2.51,4.53,1.49,7.01L91.29,268.25z"/>
<path class="st0" d="M84.56,283.94c0,3.35-2.25,6.74-6.54,6.74c-1.38,0-11.44-0.37-21.68-1.4c-17.47-1.78-19.49-3.9-19.49-5.34
	c0-1.44,2.02-3.54,19.49-5.3c10.2-1.05,20.29-1.42,21.68-1.42C82.32,277.22,84.56,280.6,84.56,283.94z"/>
<path class="st0" d="M137.85,251.09c0,4.45-8.52,16.2-12.14,19.8c-1.3,1.31-2.87,2-4.52,2c-0.82,0-1.65-0.18-2.49-0.52
	c-2.63-1.08-4.47-3.72-4.47-6.44c0-1.69,0.68-3.24,1.98-4.52c1.7-1.71,14.53-12.51,19.48-12.53c0.63,0,1.13,0.18,1.5,0.52
	C137.62,249.82,137.85,250.38,137.85,251.09z"/>
<path class="st0" d="M91.78,302.1c0,1.67-0.68,3.25-1.98,4.53c-1.7,1.73-14.54,12.51-19.5,12.51c-0.63,0-1.12-0.16-1.48-0.51
	c-0.43-0.42-0.66-1-0.66-1.67c0-4.49,8.52-16.21,12.14-19.82c1.29-1.3,2.85-1.99,4.53-1.99c0.82,0,1.65,0.18,2.47,0.51
	C89.93,296.72,91.77,299.38,91.78,302.1L91.78,302.1z"/>
<path class="st0" d="M109.73,308.95c0,1.38-0.37,11.47-1.41,21.68c-1.77,17.47-3.88,19.5-5.32,19.5s-3.55-2.03-5.33-19.5
	c-1.03-10.12-1.39-20.27-1.39-21.68c0-4.3,3.38-6.55,6.72-6.55s6.72,2.25,6.72,6.55H109.73z"/>
<path class="st0" d="M137.6,318.14c-0.43,0.43-1,0.65-1.69,0.65c-4.47,0-16.21-8.52-19.81-12.14c-1.97-1.96-2.51-4.51-1.47-7
	c1.07-2.64,3.72-4.48,6.44-4.48c1.68,0,3.25,0.69,4.53,1.97C129.11,300.84,140.59,314.92,137.6,318.14z"/>
<path class="st0" d="M169.16,284.02c-0.01,1.41-2.04,3.51-19.5,5.26c-10.18,1.04-20.27,1.4-21.67,1.4c-4.31,0-6.56-3.39-6.56-6.74
	c0-3.35,2.25-6.72,6.56-6.72c7.53,0,37.14,1.99,40.59,5.47C169.16,283.24,169.17,283.81,169.16,284.02z"/>
<path class="st0" d="M109.73,258.97c0,4.29-3.39,6.53-6.72,6.53s-6.72-2.24-6.72-6.53c0-1.42,0.36-11.58,1.39-21.69
	c1.78-17.47,3.89-19.48,5.33-19.48s3.55,2.01,5.32,19.48c1.04,10.2,1.41,20.29,1.41,21.69H109.73z"/>
<path class="st1" d="M410.88,376.69l10.5-22.48h4.66l10.47,22.48h-4.3l-9.6-20.9h2.09l-9.6,20.9h-4.21H410.88z M416.24,371.23
	l1.35-3.54h12.07l1.38,3.54H416.24L416.24,371.23z"/>
<path class="st1" d="M447.17,376.69v-22.48h19.62v3.5h-15.67v15.48h16v3.5H447.17L447.17,376.69z M450.61,366.89v-3.53h14.26v3.53
	H450.61z"/>
<path class="st1" d="M477.26,377.01c-2.23,0-3.89-0.58-5.01-1.74c-1.11-1.15-1.67-2.7-1.67-4.63v-10.02h3.79v9.28
	c0,1.28,0.27,2.28,0.82,2.97c0.55,0.7,1.43,1.05,2.65,1.05h0.45c0.84,0,1.61-0.2,2.33-0.61c0.71-0.4,1.3-0.98,1.75-1.73
	s0.67-1.65,0.67-2.7v-8.25h3.79v16.06h-3.79v-2.73c-0.45,0.84-1.17,1.56-2.15,2.16c-0.99,0.6-2.2,0.9-3.63,0.9V377.01z"/>
<path class="st1" d="M491.62,376.69v-16.06h3.78v2.47c0.54-0.75,1.28-1.4,2.22-1.95c0.94-0.56,2.17-0.84,3.69-0.84
	s2.79,0.28,3.81,0.85s1.78,1.35,2.3,2.34c0.51,0.99,0.77,2.13,0.77,3.42v9.76h-3.79v-9c0-1.28-0.29-2.32-0.87-3.11
	c-0.58-0.79-1.49-1.19-2.73-1.19h-0.45c-0.84,0-1.64,0.22-2.39,0.66c-0.76,0.44-1.38,1.05-1.85,1.82c-0.47,0.76-0.71,1.68-0.71,2.72
	v8.1L491.62,376.69L491.62,376.69z"/>
<path class="st1" d="M518.21,377.01c-2.1,0-3.71-0.45-4.84-1.36c-1.12-0.89-1.69-2.03-1.69-3.4c0-1.2,0.29-2.17,0.87-2.91
	c0.58-0.74,1.36-1.3,2.36-1.67c0.99-0.37,2.09-0.59,3.29-0.66l5.75-0.39v-0.41c0-0.94-0.35-1.65-1.05-2.13
	c-0.69-0.47-1.67-0.71-2.91-0.71h-0.51c-0.94,0-1.74,0.19-2.38,0.55c-0.64,0.37-1.02,0.88-1.12,1.54h-3.85
	c0.1-1.01,0.48-1.9,1.14-2.67c0.65-0.77,1.54-1.38,2.65-1.83c1.12-0.45,2.38-0.67,3.79-0.67c2.59,0,4.56,0.57,5.91,1.72
	c1.35,1.15,2.03,2.61,2.03,4.38v6.75c0,0.47,0.01,1.04,0.06,1.7c0.04,0.66,0.1,1.28,0.17,1.83h-3.53c-0.04-0.28-0.09-0.61-0.13-0.98
	c-0.04-0.37-0.07-0.71-0.08-1.02c-0.01-0.31-0.02-0.49-0.02-0.53c-0.36,0.73-1.06,1.38-2.1,1.98
	C520.98,376.72,519.71,377.01,518.21,377.01L518.21,377.01z M518.53,373.92h0.45c0.81,0,1.59-0.12,2.34-0.35s1.38-0.6,1.87-1.1
	c0.5-0.49,0.76-1.12,0.76-1.9v-1.12l-4.72,0.29c-1.37,0.09-2.34,0.32-2.89,0.71c-0.56,0.38-0.84,0.87-0.84,1.48
	c0,0.61,0.24,1.08,0.71,1.44c0.48,0.37,1.25,0.55,2.31,0.55H518.53z"/>
<path class="st1" d="M550.39,377.01c-3.32,0-5.93-0.65-7.85-1.95c-1.92-1.3-2.9-3.23-2.94-5.8h4.18c0.06,1.41,0.66,2.47,1.79,3.18
	s2.65,1.06,4.53,1.06h0.52c1.95,0,3.34-0.28,4.19-0.84s1.27-1.26,1.27-2.12c0-0.77-0.35-1.41-1.03-1.91
	c-0.68-0.5-1.83-0.87-3.43-1.11l-3.5-0.58c-2.52-0.43-4.37-1.13-5.52-2.12c-1.16-0.99-1.74-2.47-1.74-4.43
	c0-1.11,0.32-2.16,0.98-3.15c0.66-0.98,1.67-1.79,3.07-2.42c1.39-0.63,3.16-0.94,5.33-0.94c3.09,0,5.51,0.65,7.29,1.94
	c1.78,1.3,2.78,3.07,2.99,5.32h-4.17c-0.17-1.23-0.77-2.16-1.79-2.8c-1.02-0.64-2.37-0.97-4.06-0.97h-0.52
	c-1.64,0-2.91,0.27-3.8,0.82c-0.89,0.55-1.33,1.22-1.33,2c0,0.84,0.31,1.48,0.94,1.91c0.63,0.44,1.61,0.77,2.94,0.98l3.6,0.58
	c2.59,0.43,4.53,1.2,5.81,2.33s1.92,2.57,1.92,4.35c0,2.14-0.83,3.78-2.49,4.93s-4.05,1.72-7.18,1.72L550.39,377.01z"/>
<path class="st1" d="M572.62,377.01c-1.82,0-3.43-0.35-4.83-1.03c-1.41-0.68-2.49-1.65-3.28-2.91c-0.78-1.25-1.17-2.72-1.17-4.42
	c0-1.7,0.39-3.16,1.17-4.41c0.79-1.25,1.87-2.23,3.28-2.91c1.4-0.68,3.01-1.02,4.83-1.02s3.47,0.34,4.87,1.02
	c1.41,0.68,2.49,1.66,3.28,2.91c0.78,1.25,1.17,2.72,1.17,4.41s-0.39,3.16-1.17,4.42c-0.79,1.25-1.87,2.22-3.28,2.91
	C576.09,376.66,574.47,377.01,572.62,377.01z M572.4,373.92h0.45c1.01,0,1.91-0.22,2.7-0.64c0.79-0.43,1.41-1.04,1.87-1.82
	c0.46-0.78,0.69-1.72,0.69-2.81s-0.23-2.03-0.69-2.81s-1.09-1.38-1.87-1.81c-0.79-0.43-1.69-0.65-2.7-0.65h-0.45
	c-1.01,0-1.9,0.21-2.7,0.63c-0.79,0.42-1.41,1.02-1.87,1.8c-0.45,0.78-0.67,1.72-0.67,2.81s0.22,2.03,0.67,2.83
	c0.45,0.79,1.07,1.4,1.87,1.83C570.49,373.71,571.39,373.92,572.4,373.92L572.4,373.92z"/>
<path class="st1" d="M585.69,376.69v-22.48h3.78v22.48H585.69z"/>
<path class="st1" d="M600.78,377.01c-2.23,0-3.89-0.58-5.01-1.74c-1.11-1.15-1.67-2.7-1.67-4.63v-10.02h3.79v9.28
	c0,1.28,0.27,2.28,0.82,2.97c0.55,0.7,1.43,1.05,2.65,1.05h0.45c0.84,0,1.61-0.2,2.33-0.61c0.71-0.4,1.3-0.98,1.75-1.73
	s0.67-1.65,0.67-2.7v-8.25h3.79v16.06h-3.79v-2.73c-0.45,0.84-1.17,1.56-2.15,2.16c-0.99,0.6-2.2,0.9-3.63,0.9V377.01z"/>
<path class="st1" d="M621.11,376.69c-1.33,0-2.31-0.31-2.93-0.93c-0.63-0.62-0.95-1.49-0.95-2.6v-9.41h-3.98v-3.11h3.98v-5.2h3.79
	v5.2h5.05v3.11h-5.05v8.45c0,0.48,0.09,0.81,0.29,0.99c0.19,0.19,0.53,0.29,0.99,0.29h4.47v3.22h-5.66L621.11,376.69z"/>
<path class="st1" d="M629.84,358.28v-4.08h4.14v4.08H629.84z M630.03,376.68v-16.06h3.79v16.06H630.03z"/>
<path class="st1" d="M646.9,377.01c-1.82,0-3.43-0.35-4.83-1.03c-1.41-0.68-2.49-1.65-3.28-2.91c-0.78-1.25-1.17-2.72-1.17-4.42
	c0-1.7,0.39-3.16,1.17-4.41c0.79-1.25,1.87-2.23,3.28-2.91c1.4-0.68,3.01-1.02,4.83-1.02s3.47,0.34,4.87,1.02
	c1.41,0.68,2.49,1.66,3.28,2.91c0.78,1.25,1.17,2.72,1.17,4.41s-0.39,3.16-1.17,4.42c-0.79,1.25-1.87,2.22-3.28,2.91
	C650.37,376.66,648.75,377.01,646.9,377.01z M646.68,373.92h0.45c1.01,0,1.91-0.22,2.7-0.64c0.79-0.43,1.41-1.04,1.87-1.82
	c0.46-0.78,0.69-1.72,0.69-2.81s-0.23-2.03-0.69-2.81s-1.09-1.38-1.87-1.81c-0.79-0.43-1.69-0.65-2.7-0.65h-0.45
	c-1.01,0-1.9,0.21-2.7,0.63c-0.79,0.42-1.41,1.02-1.87,1.8c-0.45,0.78-0.67,1.72-0.67,2.81s0.22,2.03,0.67,2.83
	c0.45,0.79,1.07,1.4,1.87,1.83C644.77,373.71,645.67,373.92,646.68,373.92L646.68,373.92z"/>
<path class="st1" d="M659.98,376.69v-16.06h3.78v2.47c0.54-0.75,1.28-1.4,2.22-1.95c0.94-0.56,2.17-0.84,3.69-0.84
	s2.79,0.28,3.81,0.85s1.78,1.35,2.3,2.34c0.51,0.99,0.77,2.13,0.77,3.42v9.76h-3.79v-9c0-1.28-0.29-2.32-0.87-3.11
	c-0.58-0.79-1.49-1.19-2.73-1.19h-0.45c-0.84,0-1.64,0.22-2.39,0.66c-0.76,0.44-1.38,1.05-1.85,1.82c-0.47,0.76-0.71,1.68-0.71,2.72
	v8.1L659.98,376.69L659.98,376.69z"/>
<path class="st1" d="M687.79,377.01c-2.49,0-4.4-0.5-5.73-1.48c-1.34-0.99-2.06-2.33-2.17-4.02h3.86c0.08,0.84,0.5,1.44,1.23,1.83
	c0.74,0.38,1.6,0.58,2.59,0.58h0.45c1.12,0,1.99-0.13,2.62-0.39c0.63-0.25,0.95-0.66,0.95-1.22c0-0.4-0.19-0.74-0.56-1.01
	s-1.09-0.5-2.14-0.69l-2.66-0.51c-1.72-0.35-3.07-0.87-4.07-1.58c-0.99-0.71-1.49-1.79-1.49-3.24c0-1.09,0.32-2,0.94-2.75
	c0.63-0.74,1.49-1.29,2.59-1.67c1.09-0.37,2.29-0.56,3.6-0.56c2.59,0,4.53,0.5,5.81,1.49c1.29,0.99,2,2.33,2.12,4h-3.85
	c-0.09-0.68-0.45-1.26-1.1-1.72c-0.65-0.46-1.56-0.69-2.76-0.69h-0.45c-1.01,0-1.77,0.15-2.3,0.45c-0.53,0.3-0.79,0.68-0.79,1.15
	c0,0.24,0.07,0.45,0.22,0.66c0.15,0.2,0.42,0.37,0.81,0.51c0.38,0.14,0.94,0.28,1.67,0.43l2.51,0.48c1.75,0.34,3.14,0.89,4.17,1.64
	c1.03,0.75,1.54,1.87,1.54,3.37s-0.66,2.67-1.96,3.56c-1.3,0.9-3.19,1.36-5.65,1.36V377.01z"/>
<path class="st1" d="M708.53,376.69v-22.48h12.65c1.33,0,2.52,0.25,3.57,0.72c1.05,0.48,1.88,1.17,2.49,2.04
	c0.61,0.88,0.92,1.94,0.92,3.18s-0.35,2.37-1.06,3.24c-0.71,0.88-1.54,1.5-2.5,1.87c0.77,0.17,1.46,0.49,2.08,0.97
	c0.62,0.47,1.12,1.07,1.48,1.79c0.37,0.73,0.55,1.59,0.55,2.57c0,1.25-0.32,2.32-0.97,3.23c-0.64,0.92-1.5,1.62-2.57,2.12
	s-2.27,0.76-3.6,0.76L708.53,376.69L708.53,376.69z M712.48,363.52h8.22c1.1,0,1.95-0.25,2.56-0.75s0.92-1.24,0.92-2.21
	c0-0.87-0.31-1.57-0.92-2.08c-0.61-0.51-1.46-0.77-2.56-0.77h-8.22V363.52L712.48,363.52z M712.48,373.19h8.45
	c1.17,0,2.1-0.27,2.78-0.81c0.68-0.55,1.01-1.33,1.01-2.33s-0.33-1.73-1.01-2.23c-0.67-0.5-1.6-0.76-2.78-0.76h-8.45V373.19
	L712.48,373.19z"/>
<path class="st1" d="M732.85,376.69v-16.06h3.63v3.18c0.41-1.05,0.96-1.84,1.66-2.37c0.69-0.54,1.69-0.81,3-0.81h2.67v3.47h-2.89
	c-1.35,0-2.4,0.38-3.15,1.15c-0.75,0.76-1.12,1.89-1.12,3.39v8.06h-3.78L732.85,376.69z"/>
<path class="st1" d="M751.93,377.01c-2.1,0-3.71-0.45-4.84-1.36c-1.12-0.89-1.69-2.03-1.69-3.4c0-1.2,0.29-2.17,0.87-2.91
	c0.58-0.74,1.36-1.3,2.36-1.67c0.99-0.37,2.09-0.59,3.29-0.66l5.75-0.39v-0.41c0-0.94-0.35-1.65-1.05-2.13
	c-0.69-0.47-1.67-0.71-2.91-0.71h-0.51c-0.94,0-1.74,0.19-2.38,0.55c-0.64,0.37-1.02,0.88-1.12,1.54h-3.85
	c0.1-1.01,0.48-1.9,1.14-2.67c0.65-0.77,1.54-1.38,2.65-1.83c1.12-0.45,2.38-0.67,3.79-0.67c2.59,0,4.56,0.57,5.91,1.72
	s2.03,2.61,2.03,4.38v6.75c0,0.47,0.01,1.04,0.06,1.7c0.04,0.66,0.1,1.28,0.17,1.83h-3.53c-0.04-0.28-0.09-0.61-0.13-0.98
	s-0.07-0.71-0.08-1.02s-0.02-0.49-0.02-0.53c-0.36,0.73-1.06,1.38-2.1,1.98C754.7,376.72,753.43,377.01,751.93,377.01L751.93,377.01
	z M752.25,373.92h0.45c0.81,0,1.59-0.12,2.34-0.35s1.38-0.6,1.87-1.1c0.5-0.49,0.76-1.12,0.76-1.9v-1.12l-4.72,0.29
	c-1.37,0.09-2.34,0.32-2.89,0.71c-0.56,0.38-0.84,0.87-0.84,1.48c0,0.61,0.24,1.08,0.71,1.44
	C750.41,373.74,751.18,373.92,752.25,373.92L752.25,373.92z"/>
<path class="st2" d="M765.99,376.69v-16.06h3.78v2.47c0.54-0.75,1.28-1.4,2.22-1.95c0.94-0.56,2.17-0.84,3.69-0.84
	s2.79,0.28,3.81,0.85s1.78,1.35,2.3,2.34c0.51,0.99,0.77,2.13,0.77,3.42v9.76h-3.79v-9c0-1.28-0.29-2.32-0.87-3.11
	c-0.58-0.79-1.49-1.19-2.73-1.19h-0.45c-0.84,0-1.64,0.22-2.39,0.66c-0.76,0.44-1.38,1.05-1.85,1.82c-0.47,0.76-0.71,1.68-0.71,2.72
	v8.1L765.99,376.69L765.99,376.69z"/>
<path class="st2" d="M794.73,377.01c-1.63,0-3.09-0.33-4.38-1c-1.3-0.66-2.31-1.62-3.05-2.87s-1.11-2.75-1.11-4.48
	c0-1.84,0.37-3.37,1.12-4.61c0.75-1.23,1.77-2.16,3.05-2.8c1.28-0.63,2.72-0.94,4.3-0.94c1.46,0,2.71,0.25,3.76,0.75
	s1.82,1.11,2.34,1.82v-8.67h3.79v22.48h-3.79v-2.16c-0.58,0.75-1.42,1.36-2.52,1.8c-1.1,0.45-2.28,0.68-3.52,0.68H794.73z
	 M795.02,373.92h0.45c1,0,1.9-0.2,2.7-0.61c0.79-0.4,1.42-1,1.9-1.79c0.47-0.79,0.71-1.74,0.71-2.86s-0.24-2.09-0.71-2.88
	c-0.48-0.78-1.1-1.37-1.9-1.78c-0.79-0.4-1.69-0.61-2.7-0.61h-0.45c-1.46,0-2.65,0.46-3.6,1.37c-0.94,0.91-1.41,2.21-1.41,3.9
	c0,1.69,0.48,2.99,1.41,3.9C792.36,373.48,793.56,373.93,795.02,373.92L795.02,373.92z"/>
</svg>
