<?xml version="1.0" encoding="utf-8"?>
<!-- Generator: Adobe Illustrator 27.8.0, SVG Export Plug-In . SVG Version: 6.00 Build 0)  -->
<svg version="1.0" id="katman_1" xmlns="http://www.w3.org/2000/svg" xmlns:xlink="http://www.w3.org/1999/xlink" x="0px" y="0px"
	 viewBox="0 0 841.89 595.28" style="enable-background:new 0 0 841.89 595.28;" xml:space="preserve">
<style type="text/css">
	.st0{clip-path:url(#SVGID_00000084531715070119780650000010835585814160465077_);}
	.st1{fill:#111820;}
	.st2{fill:#7BBB4D;}
</style>
<g>
	<defs>
		<rect id="SVGID_1_" x="74.95" y="233.94" width="691.78" height="126.93"/>
	</defs>
	<clipPath id="SVGID_00000003100759105994966450000008514889524493262492_">
		<use xlink:href="#SVGID_1_"  style="overflow:visible;"/>
	</clipPath>
	<g style="clip-path:url(#SVGID_00000003100759105994966450000008514889524493262492_);">
		<path class="st1" d="M288.76,358.34h22.87v-22.48l9.49-9.97l22.36,32.45h28.12l-34.56-49.02l33.89-35.49h-29.99l-29.31,31.44
			v-71.32h-22.87V358.34z M246.83,358.34h22.87V233.94h-22.87V358.34z M184.74,340.93c-12.37,0-21.18-9.97-21.18-25.36
			c0-15.21,8.98-24.34,21.18-24.34c12.03,0,20.84,9.12,20.84,24.34C205.58,331.13,196.6,340.93,184.74,340.93z M182.02,360.7
			c11.35,0,20.17-5.92,23.72-13.86v1.01c0,4.06,0.51,8.62,0.85,10.48h21.86c-0.17-1.86-0.67-7.77-0.67-15.38v-69.12h-22.2v10.48
			c-2.03-4.73-9.15-12.84-24.23-12.84c-24.73,0-40.83,19.6-40.83,44.11C140.51,341.27,156.95,360.7,182.02,360.7z M116.63,359.52
			c6.61,0,10.68-1.19,12.87-1.86V338.9c-1.36,0.34-4.4,0.67-7.12,0.67c-6.44,0-9.83-2.37-9.83-9.63v-35.38h16.95v-20.12h-29.31
			v-0.85c9.49-2.87,14.23-11.94,14.23-28.33h-24.4v29.17H74.95v20.12h15.25v39.1C90.19,349.88,100.36,359.52,116.63,359.52z"/>
		<path class="st2" d="M766.73,314.9c0-25.52-17.29-43.6-41.85-43.6c-24.4,0-41.51,18.42-41.51,44.28c0,26.53,17.96,45.3,43.54,45.3
			c17.96,0,33.89-11.16,38.64-26.87l-19.14-5.58c-2.54,6.93-10.5,12.84-19.32,12.84c-11.19,0-20.84-8.79-21.35-19.27h60.65
			C766.55,321.16,766.73,317.77,766.73,314.9z M706.24,306.62c0.51-7.77,7.11-16.73,18.98-16.73c13.05,0,18.63,8.29,18.97,16.73
			H706.24z"/>
		<path class="st2" d="M625.42,358.34c8.13,0,16.1,0,24.4,0v-40.73c0-14.36,6.44-24,19.82-24c2.54,0,4.91,0.34,7.62,0.85
			c0-7.1,0-14.54,0-22.14c-17.62-1.69-25.93,6.59-27.79,23.5h-0.67v-21.98c-7.97,0-15.59,0-23.38,0
			C625.42,302.06,625.42,330.28,625.42,358.34z"/>
		<path class="st2" d="M566.96,271.3c-25.42,0-44.39,18.76-44.39,44.62c0,26.03,18.97,44.96,44.39,44.96
			c25.24,0,44.39-18.93,44.39-44.96C611.36,290.06,592.21,271.3,566.96,271.3z M566.96,340.09c-11.19,0-21.51-8.29-21.51-24.17
			c0-15.72,10.34-23.83,21.51-23.83s21.52,8.11,21.52,23.83C588.48,331.97,578.14,340.09,566.96,340.09z"/>
		<path class="st2" d="M380.76,358.34h22.7v-49.52c0-9.12,5.93-16.56,15.93-16.56c10.34,0,15.08,6.93,15.08,15.89v50.19h22.71
			v-49.52c0-8.96,5.76-16.56,15.59-16.56c10.49,0,15.07,6.93,15.07,15.89v50.19h22.02v-54.93c0-22.48-14.74-31.95-30.5-31.95
			c-11.19,0-20.17,3.72-26.94,14.03c-4.24-8.96-13.56-14.03-25.08-14.03c-9.32,0-20.17,4.39-24.91,12.68v-10.31h-21.68V358.34z"/>
	</g>
</g>
</svg>
